<svg width="30" height="23" viewBox="0 0 30 23" fill="none" xmlns="http://www.w3.org/2000/svg">
<path d="M9.375 13.345C8.96786 13.345 8.57179 13.4775 8.24663 13.7225C7.92147 13.9675 7.68489 14.3117 7.57265 14.7031C7.46041 15.0944 7.47861 15.5117 7.62448 15.8918C7.77036 16.2719 8.036 16.5942 8.38125 16.81L13.4194 21.85C13.5936 22.0241 13.8004 22.1621 14.0279 22.2563C14.2555 22.3505 14.4994 22.3989 14.7457 22.3988C14.9919 22.3987 15.2358 22.3501 15.4633 22.2558C15.6908 22.1615 15.8975 22.0232 16.0716 21.849C16.2456 21.6748 16.3837 21.468 16.4779 21.2405C16.572 21.0129 16.6205 20.769 16.6204 20.5227C16.6203 20.2765 16.5717 20.0326 16.4774 19.8051C16.383 19.5776 16.2448 19.3709 16.0706 19.1968L13.9706 17.0968L28.125 17.0968C28.6223 17.0968 29.0992 16.8993 29.4508 16.5477C29.8025 16.196 30 15.7191 30 15.2218C30 14.7246 29.8025 14.2477 29.4508 13.896C29.0992 13.5444 28.6223 13.3468 28.125 13.3468L9.46875 13.3468L9.375 13.3468L9.375 13.345Z" fill="#DADBE5"/>
<path d="M20.625 9.65498C21.0321 9.65498 21.4282 9.52246 21.7534 9.27745C22.0785 9.03243 22.3151 8.68824 22.4273 8.29688C22.5396 7.90552 22.5214 7.48826 22.3755 7.10816C22.2296 6.72805 21.964 6.40576 21.6187 6.18998L16.5806 1.15185C16.4077 0.97277 16.2008 0.829928 15.972 0.731661C15.7432 0.633395 15.4972 0.581671 15.2482 0.579508C14.9993 0.577344 14.7524 0.624785 14.522 0.719061C14.2915 0.813338 14.0822 0.952562 13.9061 1.12861C13.7301 1.30466 13.5909 1.51401 13.4966 1.74444C13.4023 1.97487 13.3549 2.22177 13.357 2.47073C13.3592 2.71969 13.4109 2.96573 13.5092 3.19449C13.6074 3.42324 13.7503 3.63014 13.9294 3.8031L16.0294 5.90498L1.87499 5.90498C1.37771 5.90498 0.900797 6.10252 0.549165 6.45415C0.197534 6.80578 -7.9224e-06 7.28269 -7.94414e-06 7.77998C-7.96588e-06 8.27726 0.197534 8.75417 0.549165 9.1058C0.900797 9.45743 1.37771 9.65497 1.87499 9.65497L20.5312 9.65498L20.625 9.65498Z" fill="#DADBE5"/>
</svg>
